<?xml version="1.0" encoding="UTF-8"?>
<svg id="Layer_1" xmlns="http://www.w3.org/2000/svg" version="1.1" viewBox="0 0 586.48 78.56">
  <!-- Generator: Adobe Illustrator 29.8.2, SVG Export Plug-In . SVG Version: 2.1.1 Build 3)  -->
  <defs>
    <style>
      .st0 {
        fill: red;
      }

      .st1 {
        fill: #eb202d;
      }
    </style>
  </defs>
  <g>
    <g>
      <rect class="st1" x="293.82" y="1.03" width="47.29" height="13"/>
      <polygon class="st1" points="293.85 60.42 306.85 60.42 306.85 36.69 341.12 36.69 341.12 23.69 293.82 23.69 293.85 60.42"/>
    </g>
    <polygon class="st1" points="366.26 47.42 366.26 .42 353.26 .42 353.26 60.42 359.76 60.42 366.26 60.42 394.59 60.42 394.59 47.42 366.26 47.42"/>
    <g>
      <polygon class="st1" points="535.29 58.66 522.04 58.66 511.01 3.2 524.27 3.2 532 42.07 532 42.08 535.29 58.66"/>
      <polygon class="st1" points="552.98 3.2 548.75 24.49 541.95 58.66 528.7 58.66 532 42.08 532 42.07 539.72 3.2 552.98 3.2"/>
      <polygon class="st1" points="586.48 3.2 575.45 58.66 562.2 58.66 565.5 42.08 565.5 42.07 573.22 3.2 586.48 3.2"/>
      <polygon class="st1" points="568.79 58.66 555.54 58.66 548.75 24.49 544.51 3.2 557.77 3.2 565.5 42.07 565.5 42.08 568.79 58.66"/>
    </g>
    <polygon points="16.94 3.29 24.22 41.05 33.88 3.29 52.35 3.29 58.71 41.05 70.53 3.29 87.18 3.29 68.59 58.99 47.18 58.99 41.35 25.76 32.88 58.99 12.12 58.99 0 3.29 16.94 3.29"/>
    <path d="M151.12.05h39.12s22.68-1.71,26.65,14.71c0,0,7.18,21.74-23.62,24.4l39.76,39.4s-29.32,1.15-52.81-28.5l-19.4-22.41,29.1-.18c4.01-.44,8.37-3.39,8.37-7.79h0c0-4.4-3.57-7.96-7.96-7.96h-31.01L151.12.05Z"/>
    <path d="M223.59,0v26.79c0,2.37-.56,4.71-1.74,6.76-1.66,2.88-4.83,6.54-10.79,8.91l30.09,31.76s-5.58-9-3.73-29.12l9.2-7.24,23.47,21.88h22.41l-33.44-32.12L290.82.46h-21.79l-27.09,23.23V0h-18.35Z"/>
    <path d="M149.76,19.63c-2.55-5.43-6.72-9.91-11.85-13.04-5.13-3.13-11.26-4.92-17.78-4.92-8.69,0-16.68,3.17-22.56,8.48-2.94,2.66-5.37,5.86-7.07,9.48-1.7,3.61-2.65,7.65-2.65,11.85,0,4.2.95,8.24,2.65,11.85,2.55,5.43,6.72,9.91,11.85,13.04,5.13,3.13,11.26,4.92,17.78,4.92,8.69,0,16.68-3.17,22.56-8.48,2.94-2.66,5.37-5.86,7.07-9.48,1.7-3.61,2.65-7.65,2.65-11.85,0-4.2-.95-8.24-2.65-11.85ZM137.09,37.38c-1.29,2.76-3.53,5.24-6.46,7.03-2.94,1.79-6.54,2.87-10.49,2.87-5.27,0-9.92-1.93-13.19-4.88-1.63-1.47-2.91-3.18-3.77-5.02-.86-1.84-1.32-3.81-1.32-5.91,0-2.1.46-4.06,1.32-5.91,1.29-2.76,3.53-5.24,6.46-7.03,2.94-1.79,6.54-2.87,10.49-2.87,5.27,0,9.92,1.93,13.19,4.88,1.63,1.47,2.91,3.18,3.77,5.02.86,1.84,1.32,3.81,1.32,5.91,0,2.1-.46,4.06-1.32,5.91Z"/>
  </g>
  <path class="st0" d="M505.69,22.24c-2.06-4.86-5.46-8.99-9.83-11.96-4.5-3.04-9.75-4.64-15.21-4.64-3.67,0-7.23.72-10.58,2.14-1.38.58-2.72,1.28-3.96,2.08-1.39.88-2.69,1.9-3.89,3.01l-.02-.02-.31.31c-.39.36-.75.73-1.08,1.1l-12.06,12.23-.12.12-.24.25-15.63,15.86c-.62.62-1.31,1.18-2.03,1.67-2.3,1.55-5,2.38-7.79,2.38-1.89,0-3.71-.37-5.43-1.09-2.5-1.05-4.62-2.8-6.14-5.06-1.55-2.3-2.37-4.99-2.38-7.79,0-1.89.37-3.71,1.09-5.43,1.05-2.49,2.8-4.61,5.06-6.14,2.3-1.56,5-2.38,7.79-2.38,1.88,0,3.71.37,5.43,1.09,2.49,1.05,4.61,2.8,6.14,5.06.17.25.33.52.49.78l-5.83,13.72,12.29-11.89,6.16-6.25-.12-.25c-2.09-4.38-5.32-8.14-9.35-10.86-4.49-3.04-9.74-4.64-15.2-4.64-3.67,0-7.23.72-10.58,2.14-4.86,2.06-9,5.46-11.95,9.83-3.04,4.49-4.65,9.75-4.65,15.21,0,3.67.72,7.23,2.14,10.58,2.06,4.86,5.46,9,9.84,11.95,4.49,3.04,9.74,4.65,15.18,4.65h.02c3.67,0,7.24-.72,10.58-2.14,3.15-1.34,5.97-3.24,8.39-5.61l.02.02.26-.27,12.14-12.32h0s15.87-16.1,15.87-16.1l.07-.08c.28-.31.57-.6.88-.89.53-.5,1.1-.96,1.71-1.37.92-.62,1.9-1.12,2.93-1.5,1.54-.58,3.17-.88,4.86-.88,1.89,0,3.71.37,5.43,1.09,2.49,1.05,4.61,2.8,6.14,5.06,1.56,2.3,2.38,5,2.38,7.79,0,1.89-.37,3.71-1.09,5.43-1.05,2.49-2.8,4.61-5.06,6.14-2.3,1.55-5,2.38-7.79,2.38-1.88,0-3.71-.37-5.43-1.09-2.5-1.05-4.62-2.8-6.14-5.06-.19-.29-.37-.58-.54-.89l4.78-13.29-17.33,17.83.12.25c2.09,4.38,5.32,8.13,9.34,10.84,4.5,3.04,9.74,4.65,15.18,4.65h.02c3.67,0,7.24-.72,10.58-2.14,4.86-2.06,9-5.46,11.95-9.84,3.04-4.5,4.65-9.76,4.65-15.2,0-3.67-.72-7.23-2.14-10.58Z"/>
</svg>