<?xml version="1.0" encoding="UTF-8"?>
<svg id="Layer_1" xmlns="http://www.w3.org/2000/svg" version="1.1" viewBox="0 0 409.53 198.65">
  <!-- Generator: Adobe Illustrator 29.8.2, SVG Export Plug-In . SVG Version: 2.1.1 Build 3)  -->
  <defs>
    <style>
      .st0 {
        fill: red;
      }
    </style>
  </defs>
  <path class="st0" d="M401.7,60.66c-7.51-17.76-19.94-32.87-35.94-43.69C349.33,5.87,330.15,0,310.19,0c-13.4,0-26.41,2.63-38.65,7.82-5.06,2.14-9.93,4.69-14.47,7.59-5.08,3.21-9.83,6.93-14.21,10.99l-.08-.08-1.12,1.13c-1.41,1.33-2.73,2.68-3.95,4.01l-44.06,44.71-.42.45-.89.91-57.12,57.97c-2.28,2.27-4.78,4.31-7.42,6.1-8.42,5.68-18.27,8.69-28.46,8.69-6.91,0-13.58-1.34-19.83-3.99-9.12-3.85-16.88-10.25-22.44-18.49-5.67-8.4-8.67-18.24-8.69-28.46,0-6.9,1.34-13.57,3.99-19.83,3.85-9.1,10.24-16.86,18.49-22.44,8.42-5.69,18.27-8.69,28.48-8.69,6.89,0,13.56,1.34,19.83,4,9.11,3.84,16.86,10.24,22.43,18.49.63.93,1.21,1.89,1.78,2.86l-21.32,50.16,44.92-43.44,22.51-22.85-.44-.92c-7.63-16.02-19.44-29.74-34.15-39.69C138.48,5.87,119.3,0,99.34,0c-13.4,0-26.41,2.63-38.67,7.82-17.77,7.51-32.87,19.94-43.69,35.94C5.87,60.19,0,79.41,0,99.33c0,13.4,2.63,26.41,7.83,38.65,7.52,17.77,19.96,32.88,35.96,43.69,16.41,11.11,35.59,16.98,55.46,16.98h.09c13.43,0,26.44-2.63,38.68-7.81,11.53-4.9,21.82-11.83,30.64-20.48l.08.07.94-.97,44.35-45.03h0s57.98-58.84,57.98-58.84l.25-.27c1.01-1.12,2.08-2.21,3.22-3.25,1.93-1.82,4.04-3.51,6.25-5,3.36-2.26,6.96-4.11,10.7-5.49,5.62-2.12,11.6-3.2,17.76-3.2,6.91,0,13.58,1.34,19.83,4,9.1,3.84,16.86,10.23,22.44,18.48,5.69,8.42,8.69,18.27,8.69,28.48,0,6.89-1.34,13.56-3.99,19.83-3.85,9.11-10.24,16.86-18.49,22.42-8.42,5.68-18.27,8.69-28.48,8.69-6.89,0-13.56-1.34-19.83-3.99-9.13-3.85-16.88-10.25-22.42-18.49-.71-1.05-1.37-2.14-1.99-3.24l17.48-48.59-63.34,65.15.44.92c7.63,16,19.43,29.71,34.12,39.63,16.43,11.11,35.61,16.98,55.46,16.98h.09c13.43,0,26.44-2.63,38.67-7.81,17.77-7.54,32.88-19.97,43.69-35.96,11.12-16.45,16.99-35.66,16.98-55.55,0-13.39-2.63-26.4-7.83-38.67Z"/>
</svg>