<svg width="42" height="20" viewBox="0 0 42 20" fill="none" xmlns="http://www.w3.org/2000/svg">
<path d="M6.90026 0.52246C1.94418 2.01235 -1.11144 7.71752 0.379108 12.7686C1.7206 17.2746 5.40971 20 10.2167 20C14.5021 20 15.5454 19.3459 22.5883 12.2962C29.333 5.5372 30.5255 4.73775 32.9849 5.39184C35.0716 5.93692 36.7485 7.97189 36.7485 9.93418C36.7485 11.4604 35.6678 13.3137 34.2518 14.1495C32.5004 15.2033 30.041 14.9489 28.5505 13.568L27.4698 12.5506L28.4014 10.1886C28.8858 8.88036 29.2212 7.71752 29.0722 7.6085C28.9604 7.49949 27.3953 8.95304 25.5694 10.8426C21.9548 14.6582 21.9548 14.5129 24.3024 17.0202C26.7246 19.6366 31.308 20.6904 35.2207 19.5276C37.3447 18.9098 40.0277 16.5115 41.0711 14.2948C42.6362 11.0243 42.189 6.6637 39.9904 3.90196C37.4192 0.631476 32.9476 -0.713056 28.6995 0.486121C26.6128 1.06754 26.1283 1.43093 19.7935 7.57217C16.1044 11.1334 12.7134 14.2221 12.2662 14.4402C10.962 15.0943 9.02429 14.9126 7.64553 14.0041C6.08046 12.9866 5.44697 11.8238 5.44697 9.8615C5.44697 5.86425 10.8502 3.7566 13.645 6.6637L14.5021 7.53583L13.4587 9.93418C12.8625 11.2424 12.4898 12.3689 12.5643 12.4416C12.6389 12.5506 14.3157 11.1697 16.2534 9.42544L19.7562 6.26397L19.2718 5.0648C18.5265 3.39322 15.6945 1.10388 13.5332 0.486121C11.2228 -0.167975 9.17334 -0.167975 6.90026 0.52246Z" fill="#77E20D"/>
</svg>
