<svg width="198" height="22" viewBox="0 0 198 22" fill="none" xmlns="http://www.w3.org/2000/svg">
<g clip-path="url(#clip0_2006_110)">
<path d="M133.328 0.562218C127.994 2.16546 124.706 8.30473 126.31 13.7401C127.754 18.589 131.724 21.5217 136.896 21.5217C141.508 21.5217 142.631 20.8179 150.209 13.2318C157.467 5.95851 158.75 5.09823 161.397 5.8021C163.642 6.38865 165.447 8.57845 165.447 10.69C165.447 12.3324 164.284 14.3267 162.76 15.2261C160.876 16.3601 158.229 16.0863 156.625 14.6004L155.462 13.5055L156.465 10.9638C156.986 9.55604 157.347 8.30473 157.187 8.18742C157.066 8.07011 155.382 9.63425 153.417 11.6676C149.528 15.7735 149.528 15.6171 152.054 18.3152C154.66 21.1307 159.592 22.2647 163.803 21.0134C166.089 20.3486 168.976 17.7678 170.098 15.3825C171.783 11.8632 171.301 7.17072 168.936 4.19885C166.169 0.679529 161.357 -0.767305 156.786 0.523113C154.54 1.14877 154.019 1.53981 147.202 8.14831C143.232 11.9805 139.583 15.3043 139.102 15.5389C137.698 16.2428 135.613 16.0472 134.13 15.0697C132.445 13.9748 131.764 12.7234 131.764 10.6118C131.764 6.31045 137.578 4.04244 140.586 7.17072L141.508 8.10921L140.385 10.69C139.743 12.0978 139.342 13.31 139.423 13.3882C139.503 13.5055 141.307 12.0196 143.392 10.1426L147.162 6.74059L146.64 5.45017C145.839 3.6514 142.791 1.18788 140.465 0.523113C137.979 -0.18075 135.774 -0.18075 133.328 0.562218Z" fill="#77E20D"/>
<path d="M69.3569 1.95882H75.0694V8.94497L81.0594 1.95882H88.6508L81.9169 8.93236L88.9535 20.4457H81.9169L78.0203 12.8416L75.0694 15.9311V20.4457H69.3569V1.95882Z" fill="#77E20D"/>
<path d="M49.3066 20.4457V1.95882H58.8275C60.5929 1.95882 61.9423 2.11014 62.8754 2.41279C63.8086 2.71544 64.561 3.2787 65.1327 4.10258C65.7044 4.91806 65.9902 5.91428 65.9902 7.09125C65.9902 8.11689 65.7716 9.00382 65.3345 9.75204C64.8973 10.4918 64.2962 11.0929 63.5312 11.5553C63.0436 11.8496 62.3752 12.0934 61.5261 12.2867C62.2071 12.5137 62.7031 12.7407 63.0141 12.9677C63.2243 13.119 63.527 13.4427 63.9221 13.9387C64.3256 14.4347 64.5946 14.8172 64.7292 15.0862L67.4908 20.4457H61.0343L57.9826 14.7962C57.5959 14.0648 57.2512 13.5898 56.9485 13.3712C56.5366 13.0854 56.07 12.9425 55.5488 12.9425H55.0444V20.4457H49.3066ZM55.0444 9.44939H57.453C57.7136 9.44939 58.218 9.36532 58.9662 9.19718C59.3445 9.12152 59.6514 8.92816 59.8868 8.61711C60.1306 8.30605 60.2525 7.94875 60.2525 7.54522C60.2525 6.94833 60.0633 6.49015 59.685 6.17069C59.3067 5.85122 58.5963 5.69149 57.5538 5.69149H55.0444V9.44939Z" fill="#77E20D"/>
<path d="M26.999 11.2148C26.999 8.19676 27.8397 5.84702 29.5211 4.16563C31.2025 2.48425 33.5438 1.64355 36.5451 1.64355C39.622 1.64355 41.9928 2.47164 43.6574 4.1278C45.3219 5.77556 46.1542 8.08747 46.1542 11.0635C46.1542 13.2241 45.7885 14.998 45.0571 16.3851C44.3341 17.7638 43.2832 18.8399 41.9045 19.6134C40.5342 20.3784 38.8234 20.7609 36.7721 20.7609C34.6872 20.7609 32.9595 20.4288 31.5892 19.7647C30.2273 19.1005 29.1218 18.0497 28.2727 16.6121C27.4236 15.1745 26.999 13.3754 26.999 11.2148ZM32.7115 11.2401C32.7115 13.1064 33.0562 14.4473 33.7456 15.2628C34.4434 16.0783 35.3891 16.486 36.5829 16.486C37.8103 16.486 38.7603 16.0867 39.4329 15.288C40.1054 14.4893 40.4417 13.056 40.4417 10.9879C40.4417 9.24762 40.0886 7.97818 39.3824 7.17952C38.6847 6.37245 37.7347 5.96892 36.5325 5.96892C35.3807 5.96892 34.456 6.37666 33.7582 7.19213C33.0604 8.0076 32.7115 9.35691 32.7115 11.2401Z" fill="#77E20D"/>
<path d="M-0.0126953 1.95882H5.40977L7.36438 12.2867L10.2143 1.95882H15.6242L18.4868 12.2867L20.4414 1.95882H25.8386L21.7655 20.4457H16.1664L12.9256 8.80626L9.69731 20.4457H4.09829L-0.0126953 1.95882Z" fill="#77E20D"/>
<path d="M109.509 1.95882H115.221V15.8933H124.137V20.4457H109.509V1.95882Z" fill="black"/>
<path d="M92.3081 1.95882H106.432V5.93109H98.0458V9.15935H105.209V12.892H98.0458V20.4457H92.3081V1.95882Z" fill="black"/>
<path d="M172.161 1.95882H177.584L179.538 12.2867L182.388 1.95882H187.798L190.661 12.2867L192.615 1.95882H198.012L193.939 20.4457H188.34L185.099 8.80626L181.871 20.4457H176.272L172.161 1.95882Z" fill="black"/>
</g>
<defs>
<clipPath id="clip0_2006_110">
<rect width="198" height="21.5217" fill="white"/>
</clipPath>
</defs>
</svg>
