<svg width="66" height="66" viewBox="0 0 66 66" fill="none" xmlns="http://www.w3.org/2000/svg">
<path d="M12 1.5H54C59.799 1.5 64.5 6.20101 64.5 12V54C64.5 59.799 59.799 64.5 54 64.5H12C6.20101 64.5 1.5 59.799 1.5 54V12C1.5 6.20101 6.20101 1.5 12 1.5Z" fill="url(#paint0_linear_22_1337)" stroke="#555555" stroke-width="3"/>
<path d="M27.0777 25.2278C26.1883 21.3472 26.8488 17.2656 28.914 13.881C30.9791 10.4964 34.2798 8.08599 38.0898 7.18008C41.8998 6.27416 45.9071 6.94693 49.2301 9.05038C52.5531 11.1538 54.9196 14.5157 55.8091 18.3963L47.6642 20.3315C47.4732 19.4993 47.1231 18.7135 46.6338 18.0191C46.1446 17.3246 45.5259 16.7351 44.813 16.2842C44.1002 15.8333 43.3071 15.5299 42.479 15.3912C41.651 15.2525 40.8043 15.2813 39.9871 15.4759C39.17 15.6705 38.3986 16.0271 37.7168 16.5254C37.035 17.0236 36.4562 17.6538 36.0135 18.3799C35.5708 19.106 35.2729 19.9138 35.1367 20.7572C35.0005 21.6006 35.0288 22.463 35.2198 23.2953L27.0777 25.2278Z" fill="url(#paint1_linear_22_1337)"/>
<path d="M24.5572 57.2576C21.2288 57.2523 17.9996 56.1033 15.3923 53.9965C12.7851 51.8897 10.9526 48.9484 10.1914 45.649L18.3363 43.7277C18.7239 45.4082 19.7512 46.863 21.1922 47.7721C21.9057 48.2222 22.6993 48.5249 23.5276 48.6627C24.356 48.8006 25.2029 48.7709 26.02 48.5755C26.8372 48.38 27.6085 48.0226 28.2899 47.5236C28.9714 47.0247 29.5497 46.3939 29.9918 45.6673C30.4338 44.9408 30.731 44.1327 30.8664 43.2892C31.0018 42.4456 30.9727 41.5832 30.7807 40.7512L38.9229 38.8164C39.428 41.0204 39.4377 43.3121 38.9512 45.5204C38.4647 47.7287 37.4947 49.7966 36.1134 51.5696C34.7322 53.3427 32.9755 54.7752 30.9744 55.7601C28.9734 56.745 26.7797 57.2569 24.5572 57.2576Z" fill="url(#paint2_linear_22_1337)"/>
<path d="M56.6507 22.3164C57.6293 26.584 52.9267 31.3506 46.1531 32.9637L9.34954 41.7282C8.37093 37.4606 13.0735 32.6967 19.8471 31.0781L56.6507 22.3164Z" fill="url(#paint3_linear_22_1337)"/>
<defs>
<linearGradient id="paint0_linear_22_1337" x1="33" y1="0" x2="33" y2="66" gradientUnits="userSpaceOnUse">
<stop stop-color="white"/>
<stop offset="1" stop-color="#999999"/>
</linearGradient>
<linearGradient id="paint1_linear_22_1337" x1="41.2502" y1="6.78662" x2="41.2502" y2="25.2278" gradientUnits="userSpaceOnUse">
<stop stop-color="#5E5E5E"/>
<stop offset="1" stop-color="#121212"/>
</linearGradient>
<linearGradient id="paint2_linear_22_1337" x1="24.7502" y1="38.8164" x2="24.7502" y2="57.2576" gradientUnits="userSpaceOnUse">
<stop stop-color="#5E5E5E"/>
<stop offset="1" stop-color="#121212"/>
</linearGradient>
<linearGradient id="paint3_linear_22_1337" x1="33.0001" y1="22.3164" x2="33.0001" y2="41.7282" gradientUnits="userSpaceOnUse">
<stop stop-color="#5E5E5E"/>
<stop offset="1" stop-color="#121212"/>
</linearGradient>
</defs>
</svg>
